<svg xmlns="http://www.w3.org/2000/svg" xmlns:xlink="http://www.w3.org/1999/xlink" viewBox="0 0 180 180"><defs><style>.cls-1{fill:url(#linear-gradient);}</style><linearGradient id="linear-gradient" x1="2" y1="90" x2="178" y2="90" gradientUnits="userSpaceOnUse"><stop offset="0" stop-color="#599146"/><stop offset="0.3" stop-color="#6da44b"/><stop offset="1" stop-color="#99cd55"/></linearGradient></defs><title>Artboard 7</title><g id="objects"><path class="cls-1" d="M176.76,98.1C172,112.91,152.42,117.24,141,126.86c-12.22,10.3-7,28.41-7,28.41,20.5-11.28,35-35.77,35-35.77-10.36,26.2-34.69,40.64-43.65,45.23,1.93-14.32-1.58-33.79-1.58-33.79C169.75,42,50.09,7.5,50.09,7.5,71.69,29,64.73,64.44,68.43,95.56s43.36,37.57,43.36,37.57c-1.4-45.86-31.27-93-31.27-93,41.48,47.11,40.4,112.14,39.94,122.5a90.92,90.92,0,0,0-17.06-9.28C72,89.76,2,143.55,2,143.55c21.37-3.29,38.93,18.33,58,26.51,20.4,8.78,39.66-9,39.66-9-26.77-18.46-66.21-21.19-66.21-21.19,48.28-4.24,87.49,29.31,87.49,29.31l.59-.38-.12.74c7-2.2,16.38-9.39,16.38-9.39C188.84,160.45,176.76,98.1,176.76,98.1Z"/></g></svg>