<svg xmlns="http://www.w3.org/2000/svg" xmlns:xlink="http://www.w3.org/1999/xlink" viewBox="0 0 150 198"><defs><style>.cls-1{fill:url(#linear-gradient);}.cls-2{fill:url(#linear-gradient-2);}</style><linearGradient id="linear-gradient" x1="15.45" y1="85.56" x2="117.31" y2="85.56" gradientUnits="userSpaceOnUse"><stop offset="0" stop-color="#599146"/><stop offset="0.3" stop-color="#6da44b"/><stop offset="1" stop-color="#99cd55"/></linearGradient><linearGradient id="linear-gradient-2" x1="44.06" y1="132.09" x2="133.91" y2="132.09" xlink:href="#linear-gradient"/></defs><title>Mesa de trabajo 2</title><g id="objects"><path class="cls-1" d="M107.44,150.57a60.22,60.22,0,0,0,4.26-9.94,63.73,63.73,0,0,0,2.53-10.48,45.83,45.83,0,0,0-1.43-21.07,39.38,39.38,0,0,0-4.52-9.46,45.78,45.78,0,0,0-6.75-8c-.6-.64-1.32-1.17-2-1.75s-1.31-1.17-2-1.68c-1.44-1-2.8-2.14-4.33-3L91,83.73c-.76-.46-1.56-.86-2.33-1.29l-4.81-2.62c-3.21-1.76-6.41-3.42-9.55-5.54l-4.74-3L65,67.93c-3.06-2.13-5.83-4.63-8.71-7-1.43-1.2-2.73-2.54-4.1-3.81l-2-1.93c-.68-.64-1.29-1.35-1.94-2-1.27-1.37-2.58-2.72-3.82-4.11l-3.62-4.31c-2.32-3-4.58-6-6.64-9.11a112.75,112.75,0,0,1-5.78-9.73c-.85-1.7-1.73-3.37-2.49-5.14-.39-.87-.78-1.75-1.13-2.66-.18-.45-.36-.89-.53-1.37s-.34-.91-.52-1.49l7.51,0c-.95,3.47-1.77,7.24-2.46,10.91S27.45,33.63,27,37.37A180.39,180.39,0,0,0,25.4,59.85c0,3.74,0,7.47.25,11.19s.51,7.42,1,11.08,1,7.32,1.81,10.91a103.48,103.48,0,0,0,2.77,10.62,98.76,98.76,0,0,0,3.87,10.21A79.9,79.9,0,0,0,46.72,132.2a84.39,84.39,0,0,0,7.74,7.74,79.25,79.25,0,0,0,8.87,6.62A89.59,89.59,0,0,0,73.1,152a108.57,108.57,0,0,0,10.47,4.4c3.57,1.33,7.24,2.43,10.94,3.52l-.18,1c-1.92-.21-3.87-.36-5.8-.63s-3.86-.56-5.77-1c-1-.19-1.92-.38-2.88-.59L77,158c-1.91-.45-3.77-1.1-5.67-1.66a92.82,92.82,0,0,1-11-4.57,80.34,80.34,0,0,1-10.31-6.21,75,75,0,0,1-9.27-7.84,82.45,82.45,0,0,1-7.91-9.28A82.1,82.1,0,0,1,26.52,118a91.14,91.14,0,0,1-4.83-11.17,107.58,107.58,0,0,1-5.36-23.49c-.45-4-.76-8-.84-11.93s0-7.94.18-11.89a206.89,206.89,0,0,1,2.67-23.49c.67-3.87,1.43-7.73,2.31-11.56S22.5,16.92,23.7,13l0-.07a3.92,3.92,0,0,1,4.88-2.59,4,4,0,0,1,2.62,2.71c.08.29.22.72.35,1.1s.27.8.42,1.2c.28.8.59,1.61.93,2.41.62,1.61,1.4,3.2,2.12,4.79a105.7,105.7,0,0,0,5.1,9.26c1.83,3,3.87,5.93,6,8.79l3.28,4.19c1.14,1.37,2.34,2.68,3.51,4,.59.66,1.15,1.36,1.78,2l1.88,1.91C57.82,54,59,55.29,60.35,56.47c2.68,2.36,5.24,4.86,8.12,7l4.21,3.32,4.39,3c2.83,2.09,6.07,3.88,9.18,5.77l4.69,2.82c.8.5,1.62,1,2.41,1.47l2.32,1.61c1.58,1,3,2.28,4.49,3.44.75.58,1.41,1.27,2.11,1.89s1.42,1.26,2,2a49.63,49.63,0,0,1,7,9,42.58,42.58,0,0,1,4.44,10.45,48.13,48.13,0,0,1,.59,22.28,64.81,64.81,0,0,1-3.13,10.65,61.72,61.72,0,0,1-4.87,9.93Z"/><path class="cls-2" d="M45,77.61s.52,2.17,1.83,5.86a133.28,133.28,0,0,0,6.41,14.85,166.9,166.9,0,0,0,11.65,19.54c1.21,1.69,2.39,3.43,3.71,5.12l1.93,2.57,2,2.55c2.69,3.42,5.61,6.74,8.57,10,1.55,1.58,3,3.2,4.62,4.73s3.17,3,4.79,4.47l9.57,8.36c1.57,1.34,3.09,2.68,4.54,4s2.95,2.59,4.35,3.87,2.81,2.48,4.15,3.66,2.62,2.36,3.89,3.44c2.54,2.16,4.8,4.25,6.89,6l5.34,4.73c1.48,1.33,2.64,2.39,3.42,3.14s1.19,1.17,1.19,1.17l-.5.86s-.56-.16-1.59-.51-2.52-.88-4.41-1.59-4.12-1.7-6.66-2.9-5.34-2.67-8.34-4.38c-1.53-.82-3-1.82-4.61-2.8s-3.21-2-4.79-3.21-3.27-2.35-4.92-3.63-3.24-2.68-4.87-4.1-3.17-3-4.74-4.6-3-3.3-4.57-5-3-3.48-4.46-5.22-2.91-3.56-4.36-5.35-2.84-3.63-4.19-5.48-2.7-3.68-3.94-5.58c-.64-.94-1.27-1.87-1.89-2.8l-1.78-2.83C62.1,124.75,61,122.83,60,121c-2.09-3.76-4.05-7.43-5.68-11s-3.08-7-4.3-10.2-2.17-6.2-3-8.85-1.37-5-1.81-7c-.86-3.89-1.11-6.17-1.11-6.17Z"/></g></svg>